<?xml version="1.0" standalone="no"?>
<!DOCTYPE svg PUBLIC "-//W3C//DTD SVG 20010904//EN"
 "http://www.w3.org/TR/2001/REC-SVG-20010904/DTD/svg10.dtd">
<svg version="1.0" xmlns="http://www.w3.org/2000/svg"
 width="700.000000pt" height="700.000000pt" viewBox="0 0 700.000000 700.000000"
 preserveAspectRatio="xMidYMid meet">
<metadata>
Created by potrace 1.11, written by Peter Selinger 2001-2013
</metadata>
<g transform="translate(0.000000,700.000000) scale(0.100000,-0.100000)"
fill="#000000" stroke="none">
<path d="M0 3500 l0 -3500 3500 0 3500 0 0 3500 0 3500 -3500 0 -3500 0 0
-3500z m3045 2838 c2 -7 97 -652 210 -1433 114 -781 208 -1421 209 -1422 1 -1
120 622 265 1385 144 763 267 1408 273 1435 l10 47 626 -2 627 -3 3 -2827 2
-2828 -520 0 -520 0 -2 1291 -3 1292 -214 -1134 c-118 -624 -227 -1205 -244
-1292 l-30 -157 -256 2 -256 3 -250 1277 -250 1278 -3 -1280 -2 -1280 -485 0
-485 0 0 2830 0 2830 645 0 c508 0 647 -3 650 -12z"/>
</g>
</svg>
