<svg xmlns="http://www.w3.org/2000/svg" viewBox="0 0 518.9 110.6"><defs/><defs><style>.cls-1{fill:#f78e1f}.cls-2{fill:#fff}</style></defs><g id="Layer_2" data-name="Layer 2"><g id="Layer_1-2" data-name="Layer 1"><path d="M105 .8v24.9c5.3 0 10.1-.2 15 0 15.6.7 27 10 26.1 27-.2 4.9.4 9.9-.5 14.6a23.7 23.7 0 01-23.8 19.4c-10.8.3-21.7-1.4-32.6-2.2-3.2-.1-4.2-1.7-4.2-4.8 0-21.9 0-43.8.2-65.7a6.8 6.8 0 012.5-5c4.5-3 9.2-5.3 14-7.7.8-.4 1.9-.3 3.3-.6zm.2 39.2v32.7c3.2.4 6.3.9 9.3 1 6.7 0 10.7-2.9 11.5-9.3a65.7 65.7 0 000-16c-.8-6.4-4.8-9.3-11.4-9.2-3 0-6.1.5-9.4.8zM202.1 61.3c.1 7.4 3.8 11.5 10.6 11.5 7.7 0 15.4-.1 23-.7 4-.2 5.8.3 5.5 4.8-.5 8 1.4 6.9-7.7 8.5a72.3 72.3 0 01-32.5 0c-12.4-3.5-18.6-11.7-18.7-24.6 0-4.8-.4-9.6.4-14.2 1.5-9.2 7-15.6 15.6-18.9a41 41 0 0128.6-.4 24.4 24.4 0 0117 23.5c.1 10.5.1 10.5-10.5 10.5zm22-10.8c.8-4.6-.8-8.3-4.6-10.3a12.4 12.4 0 00-13 .4c-3.5 2.2-4.9 5.7-4.4 9.9zM477 61.3c.2 7.3 3.9 11.5 10.6 11.5 7.7 0 15.4-.1 23.1-.7 4-.2 5.8.4 5.5 4.8-.6 7.4 1.6 7-7.8 8.5-11 1.8-22 3-33-.2-11.6-3.4-18-12-18.1-24.2 0-4.7-.5-9.6.3-14.2A24 24 0 01475.2 27a41.7 41.7 0 0124.4-.5c12.3 3.5 19.1 12.2 19.2 25 0 11.8 1.3 9.7-9.4 9.8s-21.3 0-32.3 0zm0-10.8h22c.6-7.5-3-11.5-10-11.7-7.8-.2-12 3.7-12 11.7zM421.1 73c1.3-2.6 2.1-3.8 2.5-5.2 3.3-12.4 6.6-24.8 9.7-37.2.9-3.7 2.5-5.2 6.4-4.9a98.9 98.9 0 0011.6 0c3 0 4 1.3 3.1 4.1-5.2 16-10.3 32-15.9 47.8-2.7 7.8-12 11.2-22.2 9.2-6.6-1.2-11-4.8-13-11.2-4.9-15-9.6-30-14.6-45-1.4-4-.2-5 3.6-4.9a114.3 114.3 0 0011.6 0c3.3-.2 4.7 1.3 5.4 4.4 3.1 12.6 6.5 25.1 9.7 37.7.4 1.3 1 2.5 2.1 5.2zM72.2 17c1.2 5.9 2.9 10.8 3 15.9.3 9 .6 18.1-.7 27a29.4 29.4 0 01-23.8 25.5A51.2 51.2 0 0119 83.6C7.8 79.3 2.2 70.5.3 59.2 0 57.8.9 55.4 2 54.6c5.7-3.3 11.6-6.3 18.6-10v9.5c.1 13 9 20.1 21.6 17.8 7.1-1.3 12-7 12.2-14.7q.3-13.5 0-27c0-2.9.8-4.4 3.2-5.6 4.5-2.2 8.9-4.6 14.6-7.6zM250 55.7c0-3.1-.1-6.3.4-9.3 2.4-13.4 11.5-20.8 26.5-21.3 5.8-.2 11.7 1 17.6 1.4 3 .2 3.5 1.8 3.6 4.4.1 9.8.2 9.7-9.3 8.7l-5.4-.3c-10 0-13.1 2.9-13.3 12.7a98.7 98.7 0 00.3 11.6c.6 6 4.1 9.2 10.3 9.2 4.1 0 8.3-.3 12.4-.8 3.5-.3 5.1.5 5 4.6-.2 8.6 0 9-8.7 9.6a88.9 88.9 0 01-19-.1A23.5 23.5 0 01250 62.4v-6.7zM174.2 25l.4 4.5-.1 56.9c0 5.1-2 9-6.7 11.5-6.7 3.6-13.2 7.8-20 11.2-5.5 2.8-7 1.6-7.1-4.6a4.4 4.4 0 000-.9c-1.5-8 1.5-13.3 9.1-16.2 4.1-1.5 5.2-4.7 5.1-8.8-.1-12.7.1-25.5-.1-38.2 0-3.8 1.3-6 4.6-7.6 4.8-2.3 9.3-4.9 14.8-7.8z"/><path d="M68.6 13.7l-15.9 8.4c-4.4-5.7-10.2-8-17.4-7.4-8.5.8-15.4 7.2-14.7 15.8.5 7.3-2.3 11.2-8.7 13.7-3.8 1.4-7.3 3.7-11 5.6-2.7-20.4.2-37.4 16.5-45.3S59.8 0 68.6 13.7z" class="cls-1"/><path d="M337 1.1v24.6c4.3 0 8.2-.2 12.1.1 1.6.1 4.2.9 4.6 2 1 2.4 1 5.3-2 7A9659.3 9659.3 0 00317 53.2v-17c-3.2 0-5.7-.2-8.1 0-4.2.3-4.8-2-4.8-5.6s.6-5.4 4.6-5c2.5.2 5 0 8 0l.1-12.2c0-1.4.5-3.4 1.4-3.9 5.5-3.1 11.1-6 16.7-8.8.4-.2 1.1.2 2 .3zM360.8 61.8V40.4c0-3.6 1-6.1 4.5-7.7 4-1.8 7.6-4 11.4-6 2.7-1.5 4.2-1 4.2 2.3 0 15 0 30.2-.2 45.3 0 2-1.8 4.4-3.5 5.5-3.7 2.6-8 4.5-12 6.7-3 1.7-4.4.7-4.4-2.6V61.7zM337.1 48c0 8.1.2 14.9 0 21.7-.1 3.7 1.3 5.1 4.9 5h7.7a75 75 0 01-.1 9 3.9 3.9 0 01-2.7 2.6c-7 .1-14.2.6-21-.6-6.6-1.1-8.4-7.2-9-13.2-1.2-13.2-1.2-13.2 10.5-19.4L337 48z"/><path d="M155.2 29.5v-17a4 4 0 011.6-2.9L174.2 0v17.8a2 2 0 01-.9 1.5l-18.2 10.2zM361.5 29.4V12.2a3 3 0 011.1-2.3L380.4 0v18a1.5 1.5 0 01-.7 1l-18.2 10.4z" class="cls-1"/><path d="M105.2 40c3.3-.3 6.3-.8 9.4-.8 6.7 0 10.6 2.8 11.4 9.3a65.7 65.7 0 010 15.9c-.8 6.4-4.8 9.3-11.4 9.2-3 0-6.1-.6-9.4-.9zM224.1 50.5h-22c-.5-4.2 1-7.7 4.3-9.9a12.4 12.4 0 0113.1-.4c3.8 2 5.4 5.7 4.6 10.3zM477 50.5c0-8 4.2-11.9 12-11.7 7 .2 10.6 4.2 10 11.7z" class="cls-2"/></g></g></svg>