<svg xmlns="http://www.w3.org/2000/svg" fill="none" viewBox="0 0 318 127"><defs/><path fill="#D42026" d="M0 0h318v127H0V0z"/><path fill="#fff" d="M269.1 29.6V10.2h-54.5l-9 64.9-8.8-65H177l2.2 17.4a31 31 0 00-28-17.3h-19.7v94.6l-14.4-94.6H91.4l-14.8 98v-98H52l-8.9 55-8.7-55H9.8v106.6h19.4V65.4l8.8 51.4h10.4L57 65.4v51.4h37.4l2.2-16.4h15.1l2.3 16.4h36.7V82.2l4.6-.7 9.3 35.3h19l-12.2-41.4A30.8 30.8 0 00183 48.3l11.5 68.6 22.6-.1L232.5 20v96.7H269V97.6h-17.4V73.2h17.4V53.7h-17.4V29.6h17.4zm-170 53.9l5.3-45.6 5.5 45.6H99zm56.4-21c-1.5.6-3 1-4.6 1V29.2c1.6 0 13 .5 13 17 0 8.6-4 14-8.4 16.2zm152.7 35.1v19.2h-35.7V10h19.2v87.5h16.5z"/></svg>